<svg width="32" height="32" viewBox="0 0 32 32" fill="none" xmlns="http://www.w3.org/2000/svg">
<path d="M29.375 8.37499L29.45 8.32499C29.3 8.04999 29.075 7.79999 28.85 7.67499L16.775 0.724988C16.575 0.599988 16.3 0.549988 16 0.549988C15.7 0.549988 15.425 0.624988 15.225 0.724988L3.225 7.69999C2.8 7.94999 2.5 8.57499 2.5 9.04999V22.975C2.5 23.25 2.55 23.55 2.725 23.825L2.675 23.85C2.8 24.05 2.975 24.225 3.15 24.325L15.2 31.3C15.4 31.425 15.675 31.475 15.975 31.475C16.275 31.475 16.55 31.4 16.75 31.3L28.75 24.325C29.175 24.075 29.475 23.45 29.475 22.975V9.02499C29.5 8.82499 29.475 8.59999 29.375 8.37499ZM16 22.125C18.275 22.125 20.275 20.875 21.325 19.025L24.55 20.925C22.85 23.875 19.65 25.875 16 25.875C10.55 25.875 6.125 21.45 6.125 16C6.125 10.55 10.55 6.12499 16 6.12499C19.675 6.12499 22.875 8.14999 24.575 11.125L21.325 13C20.275 11.125 18.275 9.87499 16 9.87499C12.625 9.87499 9.875 12.625 9.875 16C9.875 19.375 12.625 22.125 16 22.125Z" fill="#646464"/>
</svg>
