<svg width="28" height="28" viewBox="0 0 28 28" fill="none" xmlns="http://www.w3.org/2000/svg">
<g clip-path="url(#clip0_41_11)">
<path d="M28.1505 27.3142L27.5578 26.7495C27.2752 26.3752 26.9593 26.0273 26.614 25.71L26.6082 25.7054C26.2597 25.3888 25.8977 25.0878 25.522 24.8024C25.221 24.5955 24.8072 24.3462 24.2807 24.0545C23.8534 23.8649 23.5129 23.5218 23.3263 23.0932L23.3217 23.0815L23.2657 23.0535C23.513 23.029 23.7393 22.9835 23.9563 22.9194L23.9295 22.9264L24.5945 22.7432C24.8698 22.6569 25.1883 22.6009 25.5185 22.588H25.5255C25.8732 22.574 26.201 22.518 26.5137 22.4259L26.4845 22.4329C26.6354 22.3955 26.7906 22.3531 26.95 22.3057C27.1095 22.2582 27.246 22.2159 27.3595 22.1785V21.9814C27.2467 21.8126 27.1102 21.6197 26.95 21.4027C26.8014 21.1997 26.6278 21.0162 26.4332 20.8567L26.4273 20.852C25.9381 20.4196 25.4314 20.0011 24.9072 19.5967C24.4157 19.2149 23.9052 18.8582 23.3777 18.528L23.2983 18.4814C22.9941 18.2825 22.6718 18.1126 22.3358 17.9739L22.2962 17.9599C21.9477 17.8183 21.6043 17.6631 21.266 17.4944C21.1441 17.4347 21.0162 17.3881 20.8845 17.3555L20.8717 17.3532C20.7401 17.327 20.621 17.2576 20.5333 17.156L20.5322 17.1549C20.3667 16.9351 20.2277 16.6966 20.118 16.4444L20.1087 16.421C19.9959 16.1574 19.8738 15.9042 19.7423 15.6615C19.46 15.1155 19.187 14.5606 18.9233 13.9967C18.6597 13.4328 18.4065 12.8681 18.1638 12.3027C17.9951 11.9262 17.8399 11.5502 17.6983 11.1745C17.5552 10.7916 17.375 10.4235 17.1605 10.0755L17.1757 10.1024C16.7108 9.30527 16.1919 8.54088 15.6228 7.81452L15.6555 7.85886C15.1348 7.1993 14.5658 6.57926 13.9533 6.00386L13.944 5.99569C13.3417 5.43058 12.7059 4.90229 12.04 4.41369L11.9828 4.37286C11.2859 3.86652 10.5237 3.36797 9.69617 2.87719C9.3444 2.67202 8.96536 2.51765 8.57034 2.41869L8.54 2.41169L7.2415 2.08736L6.50767 2.03136C6.26345 2.01269 6.01884 2.00336 5.77384 2.00336C5.60862 1.91689 5.45659 1.80728 5.32234 1.67786C5.19258 1.55443 5.05502 1.43947 4.9105 1.33369L4.89884 1.32552C4.14099 0.888211 3.34281 0.524869 2.51534 0.240523L2.41617 0.210189C2.21038 0.0924514 1.98074 0.0225111 1.74425 0.00554719C1.50777 -0.0114167 1.2705 0.0250302 1.05 0.112189L1.0605 0.108689C0.843383 0.193835 0.647701 0.325798 0.48739 0.495183C0.327078 0.664569 0.206078 0.867213 0.133004 1.08869L0.129504 1.10036C0.00570089 1.39766 -0.0345218 1.72313 0.0131807 2.04163C0.0608832 2.36013 0.194698 2.65954 0.400171 2.90752L0.397838 2.90402C0.820949 3.46791 1.14528 3.91125 1.37084 4.23402C1.53962 4.46036 1.71384 4.69563 1.8935 4.93986C2.058 5.15919 2.20384 5.41002 2.32167 5.67486L2.331 5.69936C2.39634 5.83819 2.4535 6.00386 2.4955 6.17419L2.499 6.19286C2.53634 6.35308 2.58339 6.5273 2.64017 6.71552C2.80895 7.14797 2.96878 7.5913 3.11967 8.04552C3.28417 8.54136 3.46617 8.96136 3.67734 9.36152L3.65517 9.31486C3.76795 9.52175 3.88112 9.72397 3.99467 9.92152C4.10823 10.1191 4.23034 10.312 4.361 10.5002C4.4351 10.612 4.53068 10.708 4.64217 10.7825L4.64567 10.7849C4.7041 10.8268 4.75221 10.8814 4.78637 10.9447C4.82054 11.008 4.83985 11.0782 4.84284 11.15C4.70519 11.3545 4.61839 11.5901 4.58967 11.8349L4.5885 11.8419C4.5519 12.1167 4.49219 12.3879 4.41 12.6527L4.41934 12.6177C4.1449 13.4579 4.00665 14.3366 4.00984 15.2205C4.00984 15.5215 4.025 15.8179 4.0565 16.1107L4.053 16.0745C4.123 17.1922 4.46017 18.2189 5.00034 19.1079L4.984 19.0787C5.21384 19.4229 5.46 19.7227 5.73184 19.9969C5.88976 20.1745 6.1025 20.2943 6.33627 20.3372C6.57005 20.3801 6.81146 20.3437 7.02217 20.2337L7.01634 20.236C7.21851 20.1648 7.3949 20.035 7.52309 19.8632C7.65127 19.6913 7.72545 19.4853 7.73617 19.2712V19.2689C7.79217 18.7159 7.87617 18.2212 7.99167 17.7382L7.9765 17.8164C8.00607 17.7377 8.02109 17.6543 8.02084 17.5702L8.0185 17.5177V17.52C8.00917 17.4352 8.06089 17.3551 8.17367 17.2797V17.3357C8.28645 17.5994 8.40389 17.8626 8.526 18.1255C8.64812 18.3884 8.77489 18.6517 8.90634 18.9154C9.2505 19.4392 9.61567 19.8965 10.017 20.3177L10.0135 20.3142C10.4127 20.7453 10.8531 21.1365 11.3283 21.482L11.354 21.4995C11.6013 21.6885 11.8183 21.8927 12.0143 22.1155L12.019 22.1202C12.2033 22.3372 12.4238 22.5157 12.6723 22.6499L12.684 22.6557V22.6277H12.74C12.6957 22.5286 12.6225 22.4452 12.53 22.3885L12.5277 22.3874C12.4421 22.3402 12.3598 22.2872 12.2815 22.2287L12.2873 22.2322C12.1186 22.0634 11.9443 21.8752 11.7647 21.6675C11.585 21.4599 11.4205 21.2623 11.2712 21.0749C10.8761 20.5289 10.4992 19.9584 10.1407 19.3634C9.78212 18.7684 9.44339 18.1636 9.1245 17.5492C8.97362 17.2482 8.82778 16.9379 8.687 16.6182C8.54623 16.2985 8.40973 15.9882 8.2775 15.6872C8.21765 15.5649 8.17974 15.433 8.1655 15.2975V15.2917C8.16236 15.2276 8.14264 15.1654 8.10829 15.1113C8.07394 15.0571 8.02612 15.0127 7.9695 14.9825L7.96717 14.9814C7.8336 15.211 7.67387 15.4243 7.49117 15.6172L7.49234 15.616C7.30496 15.8135 7.15407 16.0426 7.04667 16.2927L7.04084 16.3079C6.86621 16.7387 6.75272 17.1919 6.70367 17.6542L6.70134 17.6764C6.64534 18.1749 6.58895 18.6875 6.53217 19.214L6.47617 19.242L6.44817 19.27C6.30213 19.2407 6.1645 19.1791 6.04539 19.0897C5.92628 19.0002 5.8287 18.8853 5.75984 18.7532L5.7575 18.7474C5.61595 18.4744 5.48917 18.206 5.37717 17.9424C5.07155 17.1427 4.90465 16.2968 4.88367 15.441V15.4305C4.82308 14.5161 4.9363 13.5985 5.21734 12.7262L5.20334 12.7775C5.25934 12.5706 5.38145 12.2222 5.56967 11.7322C5.75789 11.2422 5.79562 10.9035 5.68284 10.716C5.62719 10.5305 5.51997 10.3646 5.37367 10.2377L5.3725 10.2365C5.23306 10.1157 5.10245 9.98514 4.98167 9.84569L4.97817 9.84102C4.84673 9.65125 4.71995 9.44902 4.59784 9.23436C4.47573 9.01969 4.36762 8.80813 4.2735 8.59969C4.05626 8.08564 3.87156 7.55843 3.7205 7.02119L3.69484 6.91736C3.52884 6.31705 3.31585 5.73074 3.05784 5.16386L3.08817 5.23852C2.96747 4.9615 2.81476 4.69955 2.63317 4.45802L2.64017 4.46736C2.45039 4.2138 2.28084 3.97386 2.1315 3.74752C1.94173 3.5033 1.7535 3.26802 1.56684 3.04169C1.37232 2.8061 1.20556 2.54891 1.06984 2.27519L1.05934 2.25186C0.999645 2.12998 0.953105 2.00209 0.920504 1.87036L0.918171 1.85752C0.898128 1.79125 0.892859 1.72138 0.902736 1.65285C0.912613 1.58431 0.937395 1.51878 0.975338 1.46086L0.974171 1.46319C0.986644 1.4001 1.01609 1.34162 1.05934 1.29402C1.10657 1.25181 1.16413 1.22283 1.22617 1.21002H1.2285C1.32055 1.15032 1.42637 1.11523 1.53585 1.10808C1.64533 1.10093 1.75481 1.12197 1.85384 1.16919L1.85034 1.16802C2.10584 1.24036 2.31234 1.31269 2.51417 1.39552L2.47217 1.38036C2.82917 1.53124 3.15856 1.67708 3.46034 1.81786C3.808 1.98352 4.10434 2.15852 4.38434 2.35336L4.36334 2.33936C4.51423 2.43347 4.66473 2.53691 4.81484 2.64969C4.96495 2.76247 5.12478 2.87563 5.29434 2.98919H5.68984C5.99084 2.98919 6.3105 3.00358 6.64884 3.03236C6.99067 3.05919 7.30684 3.12336 7.60784 3.22369L7.57984 3.21552C8.14101 3.38236 8.62284 3.57952 9.08017 3.81636L9.03234 3.79419C9.49356 4.02908 9.93106 4.27836 10.3448 4.54202C11.032 4.97019 11.6258 5.40886 12.1847 5.88836L12.1648 5.87202C12.7482 6.37136 13.2778 6.88352 13.7748 7.42486L13.7865 7.43886C14.2718 7.96852 14.735 8.54369 15.1585 9.14686L15.1947 9.20169C15.5843 9.75236 15.9775 10.3894 16.331 11.0497L16.38 11.1489C16.4842 11.3513 16.5754 11.5602 16.653 11.7742L16.6658 11.8127C16.7413 12.0289 16.8257 12.2506 16.919 12.4777C17.1259 12.9482 17.3476 13.4231 17.584 13.9022C17.8204 14.3813 18.0421 14.8472 18.249 15.2999L18.8697 16.6544C19.0878 17.128 19.3317 17.5364 19.6152 17.9132L19.6023 17.8957C19.8392 18.1489 20.1553 18.3262 20.51 18.388L20.5193 18.3892C20.9487 18.4965 21.3103 18.6179 21.6603 18.7614L21.6055 18.7415C21.7723 18.8174 21.987 18.8979 22.2075 18.969L22.2542 18.9819C22.5015 19.0577 22.7162 19.158 22.9133 19.284L22.9028 19.2782C23.2843 19.4917 23.6075 19.7017 23.9155 19.9304L23.891 19.9129C24.2107 20.1477 24.5303 20.3694 24.85 20.5779C25.0009 20.6906 25.2541 20.8551 25.6095 21.0714C25.965 21.2876 26.1532 21.4898 26.1742 21.678C25.4594 21.6533 24.7437 21.6872 24.0345 21.7795L24.0998 21.7725C23.5075 21.8494 22.9276 22.0024 22.3743 22.2275L22.421 22.2112C22.2744 22.2734 22.123 22.3237 21.9683 22.3617L21.9462 22.3664C21.8658 22.3779 21.7916 22.416 21.7354 22.4745C21.6792 22.5331 21.6441 22.6088 21.6358 22.6895C21.707 22.7782 21.7642 22.882 21.8027 22.994L21.805 23.001C21.8447 23.12 21.8925 23.2227 21.9508 23.3184L21.9473 23.3114C22.0862 23.5575 22.2355 23.7699 22.4035 23.9659L22.3988 23.96C22.5633 24.163 22.7488 24.3392 22.9542 24.4897L22.9623 24.4955C23.1521 24.6464 23.3497 24.8016 23.555 24.961C23.7428 25.108 23.9552 25.2527 24.1757 25.3834L24.2037 25.3985C24.535 25.6015 24.92 25.7952 25.3213 25.9574L25.375 25.976C25.8113 26.151 26.1858 26.354 26.5335 26.5955L26.5148 26.5827C26.7412 26.7141 26.9667 26.86 27.1915 27.0202C27.4163 27.1804 27.6325 27.3356 27.8402 27.4857C27.9253 27.5697 28 27.663 28.063 27.7645L28.0665 27.7704C28.1741 27.8945 28.3236 27.9746 28.4865 27.9955H28.49V27.9395C28.3868 27.8615 28.3116 27.7522 28.2753 27.628L28.2742 27.6234C28.2475 27.511 28.2034 27.4036 28.1435 27.3049L28.1458 27.3095L28.1505 27.3142ZM6.4785 4.90836C6.32762 4.90836 6.18645 4.91302 6.055 4.92236C5.92676 4.9306 5.80011 4.95531 5.67817 4.99586L5.68867 4.99236V5.02036H5.74467C5.82012 5.13313 5.915 5.25991 6.02934 5.40069C6.14367 5.54147 6.24712 5.67797 6.33967 5.81019L6.79117 6.74119L6.84717 6.71319C6.97856 6.61861 7.08049 6.48877 7.14117 6.33869L7.1435 6.33286C7.20417 6.17069 7.23917 5.98169 7.23917 5.78569L7.238 5.72269V5.72619C7.1851 5.67474 7.14236 5.61379 7.112 5.54652L7.11084 5.54302L7.01634 5.33069C6.95582 5.23404 6.86929 5.15641 6.76667 5.10669L6.76317 5.10552C6.65834 5.05546 6.56223 4.98889 6.4785 4.90836Z" fill="#646464"/>
</g>
<defs>
<clipPath id="clip0_41_11">
<rect width="28" height="28" fill="white"/>
</clipPath>
</defs>
</svg>
