<svg width="28" height="32" viewBox="0 0 28 32" fill="none" xmlns="http://www.w3.org/2000/svg">
<path d="M25.2622 2H2.73778C2.01167 2 1.31531 2.28844 0.801876 2.80188C0.288443 3.31531 0 4.01167 0 4.73778V27.2622C0 27.9883 0.288443 28.6847 0.801876 29.1981C1.31531 29.7116 2.01167 30 2.73778 30H25.2622C25.6218 30 25.9778 29.9292 26.3099 29.7916C26.6421 29.654 26.9439 29.4524 27.1981 29.1981C27.4524 28.9439 27.654 28.6421 27.7916 28.3099C27.9292 27.9778 28 27.6218 28 27.2622V4.73778C28 4.37825 27.9292 4.02224 27.7916 3.69008C27.654 3.35791 27.4524 3.0561 27.1981 2.80188C26.9439 2.54765 26.6421 2.34599 26.3099 2.2084C25.9778 2.07081 25.6218 2 25.2622 2ZM16.24 17.5556H12.74V27.5733H9.95556V17.5556H6.45556V15.2844H16.24V17.5556ZM25.2622 25.7689C25.037 26.2477 24.6742 26.6485 24.22 26.92C23.7422 27.2141 23.2152 27.4196 22.6644 27.5267C22.0504 27.6535 21.4248 27.716 20.7978 27.7133C20.1562 27.7128 19.5159 27.6555 18.8844 27.5422C18.3477 27.4323 17.8256 27.26 17.3289 27.0289V24.3689L17.2356 24.2756H17.3289V24.3844C17.7968 24.7495 18.3226 25.0334 18.8844 25.2244C19.4455 25.4381 20.0419 25.5436 20.6422 25.5356C20.9559 25.541 21.2692 25.5097 21.5756 25.4422C21.8057 25.3884 22.0261 25.2992 22.2289 25.1778C22.3877 25.081 22.521 24.9477 22.6178 24.7889C22.7136 24.6081 22.7557 24.4037 22.7391 24.1997C22.7226 23.9958 22.6481 23.8008 22.5244 23.6378C22.3782 23.4328 22.1932 23.2584 21.98 23.1244C21.7211 22.9424 21.4449 22.7861 21.1556 22.6578L20.1133 22.2222C19.2883 21.8824 18.5573 21.3489 17.9822 20.6667C17.5009 20.0865 17.2467 19.3513 17.2667 18.5978C17.2485 18.0253 17.3771 17.4577 17.64 16.9489C17.8909 16.5054 18.2426 16.127 18.6667 15.8444C19.1391 15.5301 19.667 15.3084 20.2222 15.1911C20.8292 15.0514 21.4505 14.9835 22.0733 14.9889C22.6405 14.981 23.2074 15.0174 23.7689 15.0978C24.236 15.1708 24.6946 15.2907 25.1378 15.4556V18.0222C24.933 17.8763 24.7141 17.7512 24.4844 17.6489C24.2371 17.5424 23.9824 17.454 23.7222 17.3844C23.4729 17.3115 23.218 17.2594 22.96 17.2289C22.722 17.2064 22.4824 17.2064 22.2444 17.2289C21.9513 17.224 21.6588 17.2554 21.3733 17.3222C21.1392 17.3713 20.9137 17.4552 20.7044 17.5711C20.5411 17.6674 20.4026 17.8006 20.3 17.96C20.2069 18.1149 20.1584 18.2926 20.16 18.4733C20.1562 18.6663 20.2104 18.8559 20.3156 19.0178C20.4433 19.1945 20.6013 19.3472 20.7822 19.4689C21.0015 19.6435 21.2419 19.7898 21.4978 19.9044L22.4778 20.34C22.9284 20.5263 23.3651 20.7446 23.7844 20.9933C24.1532 21.1952 24.489 21.4522 24.78 21.7556C25.0652 22.0319 25.2879 22.366 25.4333 22.7356C25.5825 23.1602 25.6562 23.6077 25.6511 24.0578C25.64 24.6388 25.5075 25.211 25.2622 25.7378V25.7689Z" fill="#646464"/>
</svg>
