<svg width="32" height="32" viewBox="0 0 32 32" fill="none" xmlns="http://www.w3.org/2000/svg">
<path d="M18.32 5.63999C17.2 4.30666 16.2267 2.97333 16.04 2.67999H16C15.8133 2.95999 14.84 4.30666 13.72 5.63999C4.11999 17.8933 15.24 26.16 15.24 26.16L15.3333 26.2267C15.4133 27.4933 15.6267 29.3333 15.6267 29.3333H16.4533C16.4533 29.3333 16.6533 27.5067 16.7333 26.2267L16.8267 26.1467C16.8267 26.1467 27.92 17.8933 18.32 5.63999ZM16 25.9733C15.7663 25.7814 15.552 25.567 15.36 25.3333L16 12L16.6 25.3333C16.4201 25.5647 16.2193 25.7789 16 25.9733Z" fill="#646464"/>
</svg>
