<svg width="42" height="156" viewBox="0 0 42 156" fill="none" xmlns="http://www.w3.org/2000/svg">
<path d="M41 21C41 9.9543 32.0457 1 21 1C9.9543 1 1 9.9543 1 21V41C1 52.0457 9.9543 61 21 61C32.0457 61 41 52.0457 41 41V21Z" stroke="white" stroke-width="2"/>
<path d="M24 43C24 41.3431 22.6569 40 21 40C19.3431 40 18 41.3431 18 43V53C18 54.6569 19.3431 56 21 56C22.6569 56 24 54.6569 24 53V43Z" fill="white"/>
<path d="M20.9997 100.958C20.7775 100.958 20.5619 100.917 20.353 100.833C20.1441 100.75 19.9708 100.639 19.833 100.5L12.1663 92.8334C11.8608 92.5279 11.708 92.139 11.708 91.6667C11.708 91.1945 11.8608 90.8056 12.1663 90.5001C12.4719 90.1945 12.8608 90.0417 13.333 90.0417C13.8052 90.0417 14.1941 90.1945 14.4997 90.5001L20.9997 97.0001L27.4997 90.5001C27.8052 90.1945 28.1941 90.0417 28.6663 90.0417C29.1386 90.0417 29.5274 90.1945 29.833 90.5001C30.1386 90.8056 30.2913 91.1945 30.2913 91.6667C30.2913 92.139 30.1386 92.5279 29.833 92.8334L22.1663 100.5C21.9997 100.667 21.8191 100.785 21.6247 100.855C21.4302 100.925 21.2219 100.96 20.9997 100.958Z" fill="#F8F8F8"/>
<path d="M20.9997 120.958C20.7775 120.958 20.5619 120.917 20.353 120.833C20.1441 120.75 19.9708 120.639 19.833 120.5L12.1663 112.833C11.8608 112.528 11.708 112.139 11.708 111.667C11.708 111.195 11.8608 110.806 12.1663 110.5C12.4719 110.195 12.8608 110.042 13.333 110.042C13.8052 110.042 14.1941 110.195 14.4997 110.5L20.9997 117L27.4997 110.5C27.8052 110.195 28.1941 110.042 28.6663 110.042C29.1386 110.042 29.5274 110.195 29.833 110.5C30.1386 110.806 30.2913 111.195 30.2913 111.667C30.2913 112.139 30.1386 112.528 29.833 112.833L22.1663 120.5C21.9997 120.667 21.8191 120.785 21.6247 120.855C21.4302 120.925 21.2219 120.96 20.9997 120.958Z" fill="#F8F8F8"/>
<path d="M20.9997 140.958C20.7775 140.958 20.5619 140.917 20.353 140.833C20.1441 140.75 19.9708 140.639 19.833 140.5L12.1663 132.833C11.8608 132.528 11.708 132.139 11.708 131.667C11.708 131.195 11.8608 130.806 12.1663 130.5C12.4719 130.195 12.8608 130.042 13.333 130.042C13.8052 130.042 14.1941 130.195 14.4997 130.5L20.9997 137L27.4997 130.5C27.8052 130.195 28.1941 130.042 28.6663 130.042C29.1386 130.042 29.5274 130.195 29.833 130.5C30.1386 130.806 30.2913 131.195 30.2913 131.667C30.2913 132.139 30.1386 132.528 29.833 132.833L22.1663 140.5C21.9997 140.667 21.8191 140.785 21.6247 140.855C21.4302 140.925 21.2219 140.96 20.9997 140.958Z" fill="#E7E7E7" fill-opacity="0.5"/>
</svg>
